<svg xmlns="http://www.w3.org/2000/svg" viewBox="0 0 2.6458 3.9688" height="15" width="10"><path d="M1.709 1.6369H.943a.1458.1458 0 0 0-.146.1458l.0791.8394c0 .0805.0654.1458.146.1458h.6201a.1459.1459 0 0 0 .146-.1458l.0668-.8394a.146.146 0 0 0-.146-.1458zm-.5776.8757a.0729.0729 0 0 1-.1458 0v-.6569a.073.073 0 0 1 .1458 0zm.2554 0a.0729.0729 0 0 1-.1459 0v-.6569a.073.073 0 0 1 .1459 0zm.2554 0a.0729.0729 0 0 1-.146 0v-.6569a.073.073 0 0 1 .146 0zM.904 1.5639l.8833-.2272a.0911.0911 0 1 0-.0455-.1767l-.2715.0698a.1092.1092 0 0 0-.1176-.045l-.106.0273a.1092.1092 0 0 0-.0813.0962l-.3068.079a.0912.0912 0 1 0 .0454.1766z"/><path d="M1.323.6615A1.323 1.323 0 0 0 0 1.9844a1.323 1.323 0 0 0 1.323 1.3229 1.323 1.323 0 0 0 1.3228-1.323A1.323 1.323 0 0 0 1.323.6616zm0 .1519a1.171 1.171 0 0 1 1.1709 1.171 1.171 1.171 0 0 1-1.171 1.171 1.171 1.171 0 0 1-1.171-1.171A1.171 1.171 0 0 1 1.323.8134z"/></svg>
