<?xml version="1.0" encoding="UTF-8" standalone="no"?>
<svg
   xmlns:dc="http://purl.org/dc/elements/1.1/"
   xmlns:cc="http://creativecommons.org/ns#"
   xmlns:rdf="http://www.w3.org/1999/02/22-rdf-syntax-ns#"
   xmlns:svg="http://www.w3.org/2000/svg"
   xmlns="http://www.w3.org/2000/svg"
   xmlns:sodipodi="http://sodipodi.sourceforge.net/DTD/sodipodi-0.dtd"
   xmlns:inkscape="http://www.inkscape.org/namespaces/inkscape"
   viewBox="0 0 2.6458 3.9688"
   height="15"
   width="10"
   version="1.1"
   id="svg6"
   sodipodi:docname="discard.svg"
   inkscape:version="0.92.4 5da689c313, 2019-01-14">
  <metadata
     id="metadata12">
    <rdf:RDF>
      <cc:Work
         rdf:about="">
        <dc:format>image/svg+xml</dc:format>
        <dc:type
           rdf:resource="http://purl.org/dc/dcmitype/StillImage" />
      </cc:Work>
    </rdf:RDF>
  </metadata>
  <defs
     id="defs10" />
  <sodipodi:namedview
     pagecolor="#ffffff"
     bordercolor="#666666"
     borderopacity="1"
     objecttolerance="10"
     gridtolerance="10"
     guidetolerance="10"
     inkscape:pageopacity="0"
     inkscape:pageshadow="2"
     inkscape:window-width="1920"
     inkscape:window-height="1016"
     id="namedview8"
     showgrid="false"
     inkscape:zoom="15.733333"
     inkscape:cx="5"
     inkscape:cy="7.5"
     inkscape:window-x="0"
     inkscape:window-y="32"
     inkscape:window-maximized="1"
     inkscape:current-layer="svg6" />
  <path
     d="M1.709 1.6369H.943a.1458.1458 0 0 0-.146.1458l.0791.8394c0 .0805.0654.1458.146.1458h.6201a.1459.1459 0 0 0 .146-.1458l.0668-.8394a.146.146 0 0 0-.146-.1458zm-.5776.8757a.0729.0729 0 0 1-.1458 0v-.6569a.073.073 0 0 1 .1458 0zm.2554 0a.0729.0729 0 0 1-.1459 0v-.6569a.073.073 0 0 1 .1459 0zm.2554 0a.0729.0729 0 0 1-.146 0v-.6569a.073.073 0 0 1 .146 0zM.904 1.5639l.8833-.2272a.0911.0911 0 1 0-.0455-.1767l-.2715.0698a.1092.1092 0 0 0-.1176-.045l-.106.0273a.1092.1092 0 0 0-.0813.0962l-.3068.079a.0912.0912 0 1 0 .0454.1766z"
     id="path2"
     style="fill:#ffffff;fill-opacity:1" />
  <path
     d="M1.323.6615A1.323 1.323 0 0 0 0 1.9844a1.323 1.323 0 0 0 1.323 1.3229 1.323 1.323 0 0 0 1.3228-1.323A1.323 1.323 0 0 0 1.323.6616zm0 .1519a1.171 1.171 0 0 1 1.1709 1.171 1.171 1.171 0 0 1-1.171 1.171 1.171 1.171 0 0 1-1.171-1.171A1.171 1.171 0 0 1 1.323.8134z"
     id="path4"
     style="fill:#ffffff;fill-opacity:1" />
</svg>
